<mxfile host="app.diagrams.net" agent="Mozilla/5.0 (Windows NT 10.0; Win64; x64) AppleWebKit/537.36 (KHTML, like Gecko) Chrome/129.0.0.0 Safari/537.36" version="24.8.0">
  <diagram name="Page-1" id="_-PKKmr6rsrhODj5BplC">
    <mxGraphModel dx="2443" dy="1920" grid="1" gridSize="10" guides="1" tooltips="1" connect="1" arrows="1" fold="1" page="1" pageScale="1" pageWidth="850" pageHeight="1100" math="0" shadow="0">
      <root>
        <mxCell id="0" />
        <mxCell id="1" parent="0" />
        <mxCell id="NGq_wpx97LL9IHCgMdj8-29" value="" style="rounded=0;whiteSpace=wrap;html=1;" vertex="1" parent="1">
          <mxGeometry x="-280" y="40" width="960" height="1040" as="geometry" />
        </mxCell>
        <mxCell id="NGq_wpx97LL9IHCgMdj8-66" style="edgeStyle=orthogonalEdgeStyle;rounded=0;orthogonalLoop=1;jettySize=auto;html=1;exitX=0.5;exitY=1;exitDx=0;exitDy=0;entryX=0.5;entryY=0;entryDx=0;entryDy=0;" edge="1" parent="1" source="NGq_wpx97LL9IHCgMdj8-22" target="NGq_wpx97LL9IHCgMdj8-20">
          <mxGeometry relative="1" as="geometry" />
        </mxCell>
        <mxCell id="NGq_wpx97LL9IHCgMdj8-22" value="" style="rounded=0;whiteSpace=wrap;html=1;" vertex="1" parent="1">
          <mxGeometry x="-160" y="80" width="720" height="680" as="geometry" />
        </mxCell>
        <mxCell id="NGq_wpx97LL9IHCgMdj8-27" style="edgeStyle=orthogonalEdgeStyle;rounded=0;orthogonalLoop=1;jettySize=auto;html=1;exitX=0;exitY=0.5;exitDx=0;exitDy=0;entryX=1;entryY=0.5;entryDx=0;entryDy=0;" edge="1" parent="1" source="NGq_wpx97LL9IHCgMdj8-15" target="NGq_wpx97LL9IHCgMdj8-25">
          <mxGeometry relative="1" as="geometry" />
        </mxCell>
        <mxCell id="NGq_wpx97LL9IHCgMdj8-15" value="real_angle" style="ellipse;whiteSpace=wrap;html=1;" vertex="1" parent="1">
          <mxGeometry x="570" y="120" width="100" height="60" as="geometry" />
        </mxCell>
        <mxCell id="NGq_wpx97LL9IHCgMdj8-26" style="edgeStyle=orthogonalEdgeStyle;rounded=0;orthogonalLoop=1;jettySize=auto;html=1;exitX=1;exitY=0.5;exitDx=0;exitDy=0;entryX=0;entryY=0.5;entryDx=0;entryDy=0;" edge="1" parent="1" source="NGq_wpx97LL9IHCgMdj8-16" target="NGq_wpx97LL9IHCgMdj8-25">
          <mxGeometry relative="1" as="geometry" />
        </mxCell>
        <mxCell id="NGq_wpx97LL9IHCgMdj8-31" style="edgeStyle=orthogonalEdgeStyle;rounded=0;orthogonalLoop=1;jettySize=auto;html=1;exitX=0.5;exitY=0;exitDx=0;exitDy=0;entryX=0;entryY=0.5;entryDx=0;entryDy=0;" edge="1" parent="1" source="NGq_wpx97LL9IHCgMdj8-16" target="NGq_wpx97LL9IHCgMdj8-18">
          <mxGeometry relative="1" as="geometry" />
        </mxCell>
        <mxCell id="NGq_wpx97LL9IHCgMdj8-32" value="On Receive, Start" style="edgeLabel;html=1;align=center;verticalAlign=middle;resizable=0;points=[];" vertex="1" connectable="0" parent="NGq_wpx97LL9IHCgMdj8-31">
          <mxGeometry x="0.093" y="3" relative="1" as="geometry">
            <mxPoint x="31" y="-11" as="offset" />
          </mxGeometry>
        </mxCell>
        <mxCell id="NGq_wpx97LL9IHCgMdj8-16" value="target_angle" style="ellipse;whiteSpace=wrap;html=1;" vertex="1" parent="1">
          <mxGeometry x="-410" y="120" width="100" height="60" as="geometry" />
        </mxCell>
        <mxCell id="NGq_wpx97LL9IHCgMdj8-23" style="edgeStyle=orthogonalEdgeStyle;rounded=0;orthogonalLoop=1;jettySize=auto;html=1;exitX=0.5;exitY=1;exitDx=0;exitDy=0;entryX=0.5;entryY=0;entryDx=0;entryDy=0;" edge="1" parent="1" source="NGq_wpx97LL9IHCgMdj8-18" target="NGq_wpx97LL9IHCgMdj8-22">
          <mxGeometry relative="1" as="geometry" />
        </mxCell>
        <mxCell id="NGq_wpx97LL9IHCgMdj8-18" value="Timer Interrupt every T" style="rounded=1;arcSize=40;strokeWidth=2" vertex="1" parent="1">
          <mxGeometry x="128.5" y="-30" width="143" height="49" as="geometry" />
        </mxCell>
        <mxCell id="NGq_wpx97LL9IHCgMdj8-55" style="edgeStyle=orthogonalEdgeStyle;rounded=0;orthogonalLoop=1;jettySize=auto;html=1;exitX=0;exitY=0.5;exitDx=0;exitDy=0;entryX=1;entryY=0.5;entryDx=0;entryDy=0;" edge="1" parent="1" source="NGq_wpx97LL9IHCgMdj8-19" target="NGq_wpx97LL9IHCgMdj8-56">
          <mxGeometry relative="1" as="geometry">
            <mxPoint x="545" y="570" as="targetPoint" />
          </mxGeometry>
        </mxCell>
        <mxCell id="NGq_wpx97LL9IHCgMdj8-19" value="speed (%)" style="ellipse;whiteSpace=wrap;html=1;" vertex="1" parent="1">
          <mxGeometry x="720" y="540" width="100" height="60" as="geometry" />
        </mxCell>
        <mxCell id="NGq_wpx97LL9IHCgMdj8-74" style="edgeStyle=orthogonalEdgeStyle;rounded=0;orthogonalLoop=1;jettySize=auto;html=1;exitX=0.5;exitY=1;exitDx=0;exitDy=0;entryX=0.5;entryY=0;entryDx=0;entryDy=0;" edge="1" parent="1" source="NGq_wpx97LL9IHCgMdj8-20" target="NGq_wpx97LL9IHCgMdj8-67">
          <mxGeometry relative="1" as="geometry" />
        </mxCell>
        <mxCell id="NGq_wpx97LL9IHCgMdj8-20" value="Motor Control" style="rounded=1;arcSize=40;strokeWidth=2" vertex="1" parent="1">
          <mxGeometry x="135" y="800" width="130" height="49" as="geometry" />
        </mxCell>
        <mxCell id="NGq_wpx97LL9IHCgMdj8-24" value="PID Loop" style="text;html=1;align=center;verticalAlign=middle;whiteSpace=wrap;rounded=0;" vertex="1" parent="1">
          <mxGeometry x="160" y="80" width="60" height="30" as="geometry" />
        </mxCell>
        <mxCell id="NGq_wpx97LL9IHCgMdj8-36" style="edgeStyle=orthogonalEdgeStyle;rounded=0;orthogonalLoop=1;jettySize=auto;html=1;exitX=0.5;exitY=1;exitDx=0;exitDy=0;entryX=0.5;entryY=0;entryDx=0;entryDy=0;" edge="1" parent="1" source="NGq_wpx97LL9IHCgMdj8-25" target="NGq_wpx97LL9IHCgMdj8-28">
          <mxGeometry relative="1" as="geometry" />
        </mxCell>
        <mxCell id="NGq_wpx97LL9IHCgMdj8-37" style="edgeStyle=orthogonalEdgeStyle;rounded=0;orthogonalLoop=1;jettySize=auto;html=1;exitX=0.75;exitY=1;exitDx=0;exitDy=0;entryX=0.5;entryY=0;entryDx=0;entryDy=0;" edge="1" parent="1" source="NGq_wpx97LL9IHCgMdj8-25" target="NGq_wpx97LL9IHCgMdj8-35">
          <mxGeometry relative="1" as="geometry" />
        </mxCell>
        <mxCell id="NGq_wpx97LL9IHCgMdj8-39" style="edgeStyle=orthogonalEdgeStyle;rounded=0;orthogonalLoop=1;jettySize=auto;html=1;exitX=0.25;exitY=1;exitDx=0;exitDy=0;entryX=0.5;entryY=0;entryDx=0;entryDy=0;" edge="1" parent="1" source="NGq_wpx97LL9IHCgMdj8-25" target="NGq_wpx97LL9IHCgMdj8-38">
          <mxGeometry relative="1" as="geometry" />
        </mxCell>
        <mxCell id="NGq_wpx97LL9IHCgMdj8-41" style="edgeStyle=orthogonalEdgeStyle;rounded=0;orthogonalLoop=1;jettySize=auto;html=1;exitX=1;exitY=0.75;exitDx=0;exitDy=0;entryX=0.5;entryY=0;entryDx=0;entryDy=0;" edge="1" parent="1" source="NGq_wpx97LL9IHCgMdj8-25" target="NGq_wpx97LL9IHCgMdj8-40">
          <mxGeometry relative="1" as="geometry">
            <Array as="points">
              <mxPoint x="510" y="165" />
              <mxPoint x="510" y="190" />
              <mxPoint x="620" y="190" />
            </Array>
          </mxGeometry>
        </mxCell>
        <mxCell id="NGq_wpx97LL9IHCgMdj8-25" value="error&lt;div&gt;= target - real&lt;/div&gt;" style="rounded=0;whiteSpace=wrap;html=1;" vertex="1" parent="1">
          <mxGeometry x="280" y="120" width="120" height="60" as="geometry" />
        </mxCell>
        <mxCell id="NGq_wpx97LL9IHCgMdj8-48" style="edgeStyle=orthogonalEdgeStyle;rounded=0;orthogonalLoop=1;jettySize=auto;html=1;exitX=0.5;exitY=1;exitDx=0;exitDy=0;entryX=0.5;entryY=0;entryDx=0;entryDy=0;" edge="1" parent="1" source="NGq_wpx97LL9IHCgMdj8-28" target="NGq_wpx97LL9IHCgMdj8-46">
          <mxGeometry relative="1" as="geometry" />
        </mxCell>
        <mxCell id="NGq_wpx97LL9IHCgMdj8-28" value="Proportional&lt;div&gt;= Kp * error&lt;/div&gt;" style="rounded=0;whiteSpace=wrap;html=1;" vertex="1" parent="1">
          <mxGeometry x="280" y="220" width="120" height="60" as="geometry" />
        </mxCell>
        <mxCell id="NGq_wpx97LL9IHCgMdj8-30" value="Control Loop" style="text;html=1;align=center;verticalAlign=middle;whiteSpace=wrap;rounded=0;" vertex="1" parent="1">
          <mxGeometry x="-280" y="40" width="60" height="30" as="geometry" />
        </mxCell>
        <mxCell id="NGq_wpx97LL9IHCgMdj8-34" value="T, tau = constant" style="shape=hexagon;perimeter=hexagonPerimeter2;whiteSpace=wrap;html=1;fixedSize=1;" vertex="1" parent="1">
          <mxGeometry x="305" y="-45.5" width="120" height="80" as="geometry" />
        </mxCell>
        <mxCell id="NGq_wpx97LL9IHCgMdj8-47" style="edgeStyle=orthogonalEdgeStyle;rounded=0;orthogonalLoop=1;jettySize=auto;html=1;exitX=0.5;exitY=1;exitDx=0;exitDy=0;entryX=1;entryY=0.5;entryDx=0;entryDy=0;" edge="1" parent="1" source="NGq_wpx97LL9IHCgMdj8-35" target="NGq_wpx97LL9IHCgMdj8-46">
          <mxGeometry relative="1" as="geometry" />
        </mxCell>
        <mxCell id="NGq_wpx97LL9IHCgMdj8-35" value="Integrator&lt;div&gt;+= Ki * T * (error + prevError)&lt;/div&gt;" style="rounded=0;whiteSpace=wrap;html=1;" vertex="1" parent="1">
          <mxGeometry x="425" y="220" width="120" height="60" as="geometry" />
        </mxCell>
        <mxCell id="NGq_wpx97LL9IHCgMdj8-45" style="edgeStyle=orthogonalEdgeStyle;rounded=0;orthogonalLoop=1;jettySize=auto;html=1;exitX=0.5;exitY=1;exitDx=0;exitDy=0;entryX=0.5;entryY=0;entryDx=0;entryDy=0;" edge="1" parent="1" source="NGq_wpx97LL9IHCgMdj8-38" target="NGq_wpx97LL9IHCgMdj8-42">
          <mxGeometry relative="1" as="geometry" />
        </mxCell>
        <mxCell id="NGq_wpx97LL9IHCgMdj8-38" value="derivative&lt;div&gt;= (error - prevError)&lt;/div&gt;&lt;div&gt;/ T&lt;/div&gt;" style="rounded=0;whiteSpace=wrap;html=1;" vertex="1" parent="1">
          <mxGeometry x="10" y="220" width="120" height="60" as="geometry" />
        </mxCell>
        <mxCell id="NGq_wpx97LL9IHCgMdj8-40" value="prevError" style="ellipse;whiteSpace=wrap;html=1;" vertex="1" parent="1">
          <mxGeometry x="570" y="220" width="100" height="60" as="geometry" />
        </mxCell>
        <mxCell id="NGq_wpx97LL9IHCgMdj8-49" style="edgeStyle=orthogonalEdgeStyle;rounded=0;orthogonalLoop=1;jettySize=auto;html=1;exitX=0.5;exitY=1;exitDx=0;exitDy=0;entryX=0;entryY=0.5;entryDx=0;entryDy=0;" edge="1" parent="1" source="NGq_wpx97LL9IHCgMdj8-42" target="NGq_wpx97LL9IHCgMdj8-46">
          <mxGeometry relative="1" as="geometry" />
        </mxCell>
        <mxCell id="NGq_wpx97LL9IHCgMdj8-42" value="differentiator&lt;div&gt;=&amp;nbsp;&lt;span style=&quot;font-family: &amp;quot;Courier New&amp;quot;; font-size: 10pt; white-space: pre; color: rgb(249, 250, 244);&quot;&gt;(&lt;/span&gt;&lt;span style=&quot;font-family: &amp;quot;Courier New&amp;quot;; font-size: 10pt; white-space: pre;&quot;&gt;2*&lt;/span&gt;&lt;span style=&quot;font-family: &amp;quot;Courier New&amp;quot;; font-size: 10pt; white-space: pre;&quot;&gt;tau&lt;/span&gt;&lt;span style=&quot;font-family: &amp;quot;Courier New&amp;quot;; font-size: 10pt; white-space: pre;&quot;&gt; &lt;/span&gt;&lt;span style=&quot;font-family: &amp;quot;Courier New&amp;quot;; font-size: 10pt; white-space: pre;&quot;&gt;-&lt;/span&gt;&lt;span style=&quot;font-family: &amp;quot;Courier New&amp;quot;; font-size: 10pt; white-space: pre;&quot;&gt; &lt;/span&gt;&lt;span style=&quot;font-family: &amp;quot;Courier New&amp;quot;; font-size: 10pt; white-space: pre;&quot;&gt;T&lt;/span&gt;&lt;span style=&quot;font-family: &amp;quot;Courier New&amp;quot;; font-size: 10pt; white-space: pre;&quot;&gt;)&lt;/span&gt;&lt;span style=&quot;font-family: &amp;quot;Courier New&amp;quot;; font-size: 10pt; white-space: pre;&quot;&gt; &lt;/span&gt;&lt;span style=&quot;font-family: &amp;quot;Courier New&amp;quot;; font-size: 10pt; white-space: pre;&quot;&gt;/&lt;/span&gt;&lt;span style=&quot;font-family: &amp;quot;Courier New&amp;quot;; font-size: 10pt; white-space: pre;&quot;&gt; &lt;/span&gt;&lt;span style=&quot;font-family: &amp;quot;Courier New&amp;quot;; font-size: 10pt; white-space: pre;&quot;&gt;(&lt;/span&gt;&lt;span style=&quot;font-family: &amp;quot;Courier New&amp;quot;; font-size: 10pt; white-space: pre;&quot;&gt;2&lt;/span&gt;&lt;span style=&quot;font-family: &amp;quot;Courier New&amp;quot;; font-size: 10pt; white-space: pre;&quot;&gt;*&lt;/span&gt;&lt;span style=&quot;font-family: &amp;quot;Courier New&amp;quot;; font-size: 10pt; white-space: pre;&quot;&gt;tau&lt;/span&gt;&lt;span style=&quot;font-family: &amp;quot;Courier New&amp;quot;; font-size: 10pt; white-space: pre;&quot;&gt; &lt;/span&gt;&lt;span style=&quot;font-family: &amp;quot;Courier New&amp;quot;; font-size: 10pt; white-space: pre;&quot;&gt;+&lt;/span&gt;&lt;span style=&quot;font-family: &amp;quot;Courier New&amp;quot;; font-size: 10pt; white-space: pre;&quot;&gt; &lt;/span&gt;&lt;span style=&quot;font-family: &amp;quot;Courier New&amp;quot;; font-size: 10pt; white-space: pre;&quot;&gt;T&lt;/span&gt;&lt;span style=&quot;font-family: &amp;quot;Courier New&amp;quot;; font-size: 10pt; white-space: pre;&quot;&gt;)&lt;/span&gt;&lt;span style=&quot;font-family: &amp;quot;Courier New&amp;quot;; font-size: 10pt; white-space: pre;&quot;&gt; &lt;/span&gt;&lt;span style=&quot;font-family: &amp;quot;Courier New&amp;quot;; font-size: 10pt; white-space: pre;&quot;&gt;*&lt;/span&gt;&lt;span style=&quot;font-family: &amp;quot;Courier New&amp;quot;; font-size: 10pt; white-space: pre;&quot;&gt; &lt;/span&gt;&lt;span style=&quot;font-family: &amp;quot;Courier New&amp;quot;; font-size: 10pt; white-space: pre;&quot;&gt;differentiator +&lt;/span&gt;&lt;/div&gt;&lt;div&gt;&lt;span style=&quot;background-color: initial; font-family: &amp;quot;Courier New&amp;quot;; font-size: 10pt; white-space: pre;&quot;&gt;+ (2*Kd) / (2*tau + T) * derivative;&lt;/span&gt;&lt;/div&gt;" style="rounded=0;whiteSpace=wrap;html=1;" vertex="1" parent="1">
          <mxGeometry x="-140" y="300" width="400" height="60" as="geometry" />
        </mxCell>
        <mxCell id="NGq_wpx97LL9IHCgMdj8-52" style="edgeStyle=orthogonalEdgeStyle;rounded=0;orthogonalLoop=1;jettySize=auto;html=1;exitX=0.75;exitY=1;exitDx=0;exitDy=0;entryX=0;entryY=0.5;entryDx=0;entryDy=0;" edge="1" parent="1" source="NGq_wpx97LL9IHCgMdj8-46" target="NGq_wpx97LL9IHCgMdj8-51">
          <mxGeometry relative="1" as="geometry" />
        </mxCell>
        <mxCell id="NGq_wpx97LL9IHCgMdj8-60" style="edgeStyle=orthogonalEdgeStyle;rounded=0;orthogonalLoop=1;jettySize=auto;html=1;exitX=0.5;exitY=1;exitDx=0;exitDy=0;entryX=0.5;entryY=0;entryDx=0;entryDy=0;" edge="1" parent="1" source="NGq_wpx97LL9IHCgMdj8-46" target="NGq_wpx97LL9IHCgMdj8-59">
          <mxGeometry relative="1" as="geometry" />
        </mxCell>
        <mxCell id="NGq_wpx97LL9IHCgMdj8-46" value="output&lt;div&gt;= proportional + integrator + differentiator&lt;/div&gt;" style="rounded=0;whiteSpace=wrap;html=1;" vertex="1" parent="1">
          <mxGeometry x="280" y="390" width="120" height="60" as="geometry" />
        </mxCell>
        <mxCell id="NGq_wpx97LL9IHCgMdj8-54" style="edgeStyle=orthogonalEdgeStyle;rounded=0;orthogonalLoop=1;jettySize=auto;html=1;exitX=0.5;exitY=1;exitDx=0;exitDy=0;entryX=0.5;entryY=0;entryDx=0;entryDy=0;" edge="1" parent="1" source="NGq_wpx97LL9IHCgMdj8-51" target="NGq_wpx97LL9IHCgMdj8-56">
          <mxGeometry relative="1" as="geometry">
            <mxPoint x="485" y="540" as="targetPoint" />
          </mxGeometry>
        </mxCell>
        <mxCell id="NGq_wpx97LL9IHCgMdj8-51" value="output_limited&lt;div&gt;= output&lt;/div&gt;" style="rounded=0;whiteSpace=wrap;html=1;" vertex="1" parent="1">
          <mxGeometry x="425" y="450" width="120" height="60" as="geometry" />
        </mxCell>
        <mxCell id="NGq_wpx97LL9IHCgMdj8-61" style="edgeStyle=orthogonalEdgeStyle;rounded=0;orthogonalLoop=1;jettySize=auto;html=1;exitX=0;exitY=0.5;exitDx=0;exitDy=0;entryX=1;entryY=0.5;entryDx=0;entryDy=0;" edge="1" parent="1" source="NGq_wpx97LL9IHCgMdj8-56" target="NGq_wpx97LL9IHCgMdj8-59">
          <mxGeometry relative="1" as="geometry" />
        </mxCell>
        <mxCell id="NGq_wpx97LL9IHCgMdj8-65" style="edgeStyle=orthogonalEdgeStyle;rounded=0;orthogonalLoop=1;jettySize=auto;html=1;exitX=0.5;exitY=1;exitDx=0;exitDy=0;entryX=0.5;entryY=1;entryDx=0;entryDy=0;" edge="1" parent="1" source="NGq_wpx97LL9IHCgMdj8-56" target="NGq_wpx97LL9IHCgMdj8-22">
          <mxGeometry relative="1" as="geometry">
            <Array as="points">
              <mxPoint x="485" y="660" />
              <mxPoint x="200" y="660" />
            </Array>
          </mxGeometry>
        </mxCell>
        <mxCell id="NGq_wpx97LL9IHCgMdj8-56" value="clamp to +- speed" style="shape=process;whiteSpace=wrap;html=1;backgroundOutline=1;" vertex="1" parent="1">
          <mxGeometry x="425" y="540" width="120" height="60" as="geometry" />
        </mxCell>
        <mxCell id="NGq_wpx97LL9IHCgMdj8-58" value="duty cycle and speed are in %...&lt;div&gt;very convenient, I can do this to limit the&lt;/div&gt;&lt;div&gt;output to the given speed&lt;/div&gt;" style="text;html=1;align=center;verticalAlign=middle;resizable=0;points=[];autosize=1;strokeColor=#82b366;fillColor=#d5e8d4;" vertex="1" parent="1">
          <mxGeometry x="560" y="470" width="240" height="60" as="geometry" />
        </mxCell>
        <mxCell id="NGq_wpx97LL9IHCgMdj8-64" style="edgeStyle=orthogonalEdgeStyle;rounded=0;orthogonalLoop=1;jettySize=auto;html=1;exitX=0;exitY=0.5;exitDx=0;exitDy=0;entryX=1;entryY=0.5;entryDx=0;entryDy=0;" edge="1" parent="1" source="NGq_wpx97LL9IHCgMdj8-59" target="NGq_wpx97LL9IHCgMdj8-63">
          <mxGeometry relative="1" as="geometry" />
        </mxCell>
        <mxCell id="NGq_wpx97LL9IHCgMdj8-59" value="delta_u&lt;div&gt;= output - output_limited&lt;/div&gt;" style="rounded=0;whiteSpace=wrap;html=1;" vertex="1" parent="1">
          <mxGeometry x="280" y="540" width="120" height="60" as="geometry" />
        </mxCell>
        <mxCell id="NGq_wpx97LL9IHCgMdj8-63" value="Integrator&lt;div&gt;+= delta_u&lt;/div&gt;" style="rounded=0;whiteSpace=wrap;html=1;" vertex="1" parent="1">
          <mxGeometry x="128.5" y="540" width="120" height="60" as="geometry" />
        </mxCell>
        <mxCell id="NGq_wpx97LL9IHCgMdj8-70" style="edgeStyle=orthogonalEdgeStyle;rounded=0;orthogonalLoop=1;jettySize=auto;html=1;exitX=1;exitY=0.5;exitDx=0;exitDy=0;entryX=0;entryY=0.5;entryDx=0;entryDy=0;" edge="1" parent="1" source="NGq_wpx97LL9IHCgMdj8-67" target="NGq_wpx97LL9IHCgMdj8-69">
          <mxGeometry relative="1" as="geometry" />
        </mxCell>
        <mxCell id="NGq_wpx97LL9IHCgMdj8-71" value="Yes" style="edgeLabel;html=1;align=center;verticalAlign=middle;resizable=0;points=[];" vertex="1" connectable="0" parent="NGq_wpx97LL9IHCgMdj8-70">
          <mxGeometry x="-0.581" relative="1" as="geometry">
            <mxPoint x="3" y="-15" as="offset" />
          </mxGeometry>
        </mxCell>
        <mxCell id="NGq_wpx97LL9IHCgMdj8-67" value="real_angle ~=&amp;nbsp;&lt;div&gt;target_angle?&lt;/div&gt;" style="rhombus;whiteSpace=wrap;html=1;" vertex="1" parent="1">
          <mxGeometry x="145" y="870" width="110" height="110" as="geometry" />
        </mxCell>
        <mxCell id="NGq_wpx97LL9IHCgMdj8-69" value="Stop PID Timer" style="shape=process;whiteSpace=wrap;html=1;backgroundOutline=1;" vertex="1" parent="1">
          <mxGeometry x="285" y="895" width="120" height="60" as="geometry" />
        </mxCell>
      </root>
    </mxGraphModel>
  </diagram>
</mxfile>
